<svg width="43" height="26" viewBox="0 0 43 26" fill="none" xmlns="http://www.w3.org/2000/svg">
<path d="M40.2697 8.6225C40.7668 6.49434 42.3442 4.36477 42.3442 4.36477L35.265 4.36054C31.2953 1.79743 26.4741 0.4375 21.1333 0.4375C15.5891 0.4375 10.5829 1.82991 6.63583 4.41137L0 4.41702C0 4.41702 1.55905 6.52258 2.06319 8.63521C0.772462 10.3905 0.00564872 12.5469 0.00564872 14.8883C0.00564872 20.7334 4.76328 25.4882 10.6111 25.4882C13.9538 25.4882 16.9349 23.9305 18.8794 21.5101L21.1375 24.8908L23.4125 21.4804C24.4364 22.7824 25.7568 23.8387 27.3045 24.5547C29.8789 25.7381 32.764 25.8553 35.4203 24.8739C40.9066 22.8446 43.7239 16.7284 41.6946 11.2492C41.3387 10.2846 40.853 9.40767 40.2697 8.6225ZM21.1319 2.28887C24.9433 2.28887 28.3834 2.97801 31.4224 4.33935C30.3054 4.36901 29.1771 4.56813 28.0727 4.97201C25.415 5.95206 23.2953 7.90935 22.1133 10.4852C21.5753 11.6516 21.2717 12.883 21.1771 14.1286C20.7887 8.7044 16.3192 4.39866 10.8215 4.2871C13.8577 2.99213 17.3472 2.28887 21.1319 2.28887ZM17.6184 19.6248C16.096 21.8702 13.5202 23.3501 10.6083 23.3501C5.93963 23.3501 2.14087 19.5485 2.14087 14.8898C2.14087 10.2183 5.94104 6.42373 10.6083 6.42373C15.2756 6.42373 19.0743 10.2183 19.0743 14.8898C19.0743 15.175 19.0192 15.4433 18.9896 15.7187C18.8484 17.1492 18.388 18.4894 17.6184 19.6248ZM34.6789 22.8672C32.5578 23.6467 30.2574 23.5605 28.2026 22.613C26.7453 21.9379 25.552 20.8802 24.692 19.5669C24.3417 19.0359 24.0339 18.4725 23.8065 17.8553C23.5481 17.1577 23.4196 16.4389 23.3504 15.7145C23.2092 14.2458 23.4224 12.7602 24.0551 11.3833C25.0041 9.32859 26.693 7.7653 28.8141 6.98013C33.1947 5.3646 38.071 7.61138 39.6893 11.9905C41.3063 16.3697 39.0581 21.246 34.6789 22.8672Z" fill="#191825" fill-opacity="0.5"/>
</svg>
