<svg width="7" height="7" viewBox="0 0 7 7" fill="none" xmlns="http://www.w3.org/2000/svg">
<path d="M5.96533 1.35641C6.53021 1.92834 6.82677 2.68809 6.82677 3.50575C6.82677 4.36011 6.50762 5.12552 5.92015 5.68898C5.30726 6.27079 4.54751 6.58289 3.75387 6.58289C2.92492 6.58289 2.16232 6.25667 1.56921 5.64379C1.00292 5.05632 0.682373 4.30504 0.682373 3.50292C0.682373 2.68527 1.00858 1.89304 1.61864 1.29145C2.19057 0.730812 2.92633 0.425781 3.75387 0.425781C4.60259 0.427193 5.37504 0.74917 5.96533 1.35641ZM1.99994 1.69392C1.50285 2.19101 1.23737 2.83072 1.23737 3.50575C1.23737 4.16382 1.48308 4.76965 1.95757 5.25261C2.43348 5.7497 3.06472 6.01801 3.74116 6.01801C4.39923 6.01801 5.03188 5.76523 5.52049 5.29074C6.00064 4.82896 6.26473 4.1963 6.26473 3.50433C6.26473 2.8279 6.01901 2.2136 5.55299 1.74334C5.06437 1.24626 4.44443 0.985004 3.75387 0.985004C3.0732 0.985004 2.47584 1.2279 1.99994 1.69392ZM3.81035 1.75182C4.77345 1.75182 5.26771 2.10063 5.26771 2.73187C5.26771 3.16682 5.00929 3.50433 4.55033 3.64273L5.30725 5.1241H4.28201L3.65078 3.78677H3.38387V5.1241H2.45467V1.75041L3.81035 1.75182ZM3.37682 3.23743H3.70019C4.11396 3.23743 4.31309 3.09198 4.31309 2.80248C4.31309 2.47203 4.10409 2.33646 3.65078 2.33646H3.37682V3.23743Z" fill="#191825" fill-opacity="0.5"/>
</svg>
